<?xml version="1.0" encoding="UTF-8"?>
<svg id="Layer_1" xmlns="http://www.w3.org/2000/svg" version="1.1" viewBox="0 0 24 24">
  <!-- Generator: Adobe Illustrator 29.4.0, SVG Export Plug-In . SVG Version: 2.1.0 Build 152)  -->
  <defs>
    <style>
      .st0 {
        fill: #3da2b4;
        fill-rule: evenodd;
      }
    </style>
  </defs>
  <path class="st0" d="M11.1,2.2c-.9,0-1.7.7-1.9,1.6l-.2,1.1c0,0-.1.3-.3.3-.3.2-.7.4-1,.6-.2,0-.3,0-.4,0l-1-.4c-.9-.3-1.8,0-2.3.8l-.9,1.6c-.5.8-.3,1.8.4,2.4l.8.7s.2.2.2.4v1.1c0,.2,0,.4-.2.4l-.8.7c-.7.6-.9,1.6-.4,2.4l.9,1.6c.5.8,1.4,1.1,2.3.8l1-.4h.4c.3.2.6.4,1,.6.2,0,.3.2.3.4l.2,1.1c.2.9.9,1.6,1.9,1.6h1.8c.9,0,1.7-.7,1.9-1.6l.2-1.1c0-.1.1-.3.3-.3.3-.2.7-.4,1-.6.2-.1.3-.1.5,0l1,.4c.9.3,1.8,0,2.3-.8l.9-1.6c.5-.8.3-1.8-.4-2.4l-.8-.7s-.2-.2-.2-.4v-1.1c0-.2,0-.4.2-.4l.8-.7c.7-.6.9-1.6.4-2.4l-.9-1.6c-.5-.8-1.4-1.1-2.3-.8l-1,.4h-.4c-.3-.2-.6-.4-1-.6-.2,0-.3-.2-.3-.3l-.2-1.1c-.2-.9-.9-1.6-1.9-1.6h-1.9ZM12,15.7c2.1,0,3.8-1.7,3.8-3.8s-1.7-3.7-3.8-3.7-3.8,1.7-3.8,3.7,1.7,3.8,3.8,3.8Z"/>
  <animateTransform accumulate="none" additive="sum" attributeName="transform" attributeType="xml" calcMode="linear" dur="3s" fill="remove" from="0 0 0" repeatCount="indefinite" restart="always" to="360 0 0" type="rotate"/>
</svg>